<?xml version="1.0" encoding="UTF-8" standalone="no"?>
<!-- Created with Inkscape (http://www.inkscape.org/) -->

<svg
   width="64pt"
   height="64pt"
   viewBox="0 0 22.577778 22.577778"
   version="1.1"
   id="svg831"
   inkscape:version="1.1.2 (b8e25be833, 2022-02-05)"
   sodipodi:docname="Export - Unblash - 64px.svg.2022_11_25_22_15_20.0.svg"
   inkscape:export-filename="E:\Icon Design\TR Icon Design Project\Carlos - Icon Design Project\November\Asli Siap\Solid\20 - Real Estate Sellers.png"
   inkscape:export-xdpi="576"
   inkscape:export-ydpi="576"
   xmlns:inkscape="http://www.inkscape.org/namespaces/inkscape"
   xmlns:sodipodi="http://sodipodi.sourceforge.net/DTD/sodipodi-0.dtd"
   xmlns="http://www.w3.org/2000/svg"
   xmlns:svg="http://www.w3.org/2000/svg"
   xmlns:rdf="http://www.w3.org/1999/02/22-rdf-syntax-ns#"
   xmlns:cc="http://creativecommons.org/ns#"
   xmlns:dc="http://purl.org/dc/elements/1.1/">
  <defs
     id="defs825">
    <pattern
       id="EMFhbasepattern"
       patternUnits="userSpaceOnUse"
       width="6"
       height="6"
       x="0"
       y="0" />
    <pattern
       id="EMFhbasepattern-9"
       patternUnits="userSpaceOnUse"
       width="6"
       height="6"
       x="0"
       y="0" />
    <pattern
       id="EMFhbasepattern-0"
       patternUnits="userSpaceOnUse"
       width="6"
       height="6"
       x="0"
       y="0" />
    <pattern
       id="EMFhbasepattern-7"
       patternUnits="userSpaceOnUse"
       width="6"
       height="6"
       x="0"
       y="0" />
    <pattern
       id="EMFhbasepattern-2"
       patternUnits="userSpaceOnUse"
       width="6"
       height="6"
       x="0"
       y="0" />
    <pattern
       id="EMFhbasepattern-98"
       patternUnits="userSpaceOnUse"
       width="6"
       height="6"
       x="0"
       y="0" />
    <pattern
       id="EMFhbasepattern-6"
       patternUnits="userSpaceOnUse"
       width="6"
       height="6"
       x="0"
       y="0" />
    <pattern
       id="EMFhbasepattern-01"
       patternUnits="userSpaceOnUse"
       width="6"
       height="6"
       x="0"
       y="0" />
    <pattern
       id="EMFhbasepattern-07"
       patternUnits="userSpaceOnUse"
       width="6"
       height="6"
       x="0"
       y="0" />
    <pattern
       id="EMFhbasepattern-8"
       patternUnits="userSpaceOnUse"
       width="6"
       height="6"
       x="0"
       y="0" />
    <pattern
       id="EMFhbasepattern-4"
       patternUnits="userSpaceOnUse"
       width="6"
       height="6"
       x="0"
       y="0" />
    <pattern
       id="EMFhbasepattern-40"
       patternUnits="userSpaceOnUse"
       width="6"
       height="6"
       x="0"
       y="0" />
    <pattern
       id="EMFhbasepattern-08"
       patternUnits="userSpaceOnUse"
       width="6"
       height="6"
       x="0"
       y="0" />
    <pattern
       id="EMFhbasepattern-04"
       patternUnits="userSpaceOnUse"
       width="6"
       height="6"
       x="0"
       y="0" />
    <pattern
       id="EMFhbasepattern-014"
       patternUnits="userSpaceOnUse"
       width="6"
       height="6"
       x="0"
       y="0" />
    <pattern
       id="EMFhbasepattern-27"
       patternUnits="userSpaceOnUse"
       width="6"
       height="6"
       x="0"
       y="0" />
    <pattern
       id="EMFhbasepattern-09"
       patternUnits="userSpaceOnUse"
       width="6"
       height="6"
       x="0"
       y="0" />
    <pattern
       id="EMFhbasepattern-5"
       patternUnits="userSpaceOnUse"
       width="6"
       height="6"
       x="0"
       y="0" />
    <pattern
       id="EMFhbasepattern-018"
       patternUnits="userSpaceOnUse"
       width="6"
       height="6"
       x="0"
       y="0" />
    <pattern
       id="EMFhbasepattern-3"
       patternUnits="userSpaceOnUse"
       width="6"
       height="6"
       x="0"
       y="0" />
  </defs>
  <sodipodi:namedview
     id="base"
     pagecolor="#ffffff"
     bordercolor="#666666"
     borderopacity="1.0"
     inkscape:pageopacity="0.0"
     inkscape:pageshadow="2"
     inkscape:zoom="5.3085938"
     inkscape:cx="42.666667"
     inkscape:cy="42.57248"
     inkscape:document-units="pt"
     inkscape:current-layer="layer1"
     showgrid="false"
     units="pt"
     inkscape:window-width="958"
     inkscape:window-height="1041"
     inkscape:window-x="-7"
     inkscape:window-y="0"
     inkscape:window-maximized="0"
     inkscape:pagecheckerboard="true"
     inkscape:showpageshadow="false"
     inkscape:object-paths="true"
     inkscape:snap-intersection-paths="true"
     inkscape:snap-smooth-nodes="true"
     inkscape:snap-midpoints="true"
     showguides="true"
     inkscape:snap-bbox="true"
     inkscape:bbox-nodes="true"
     inkscape:snap-nodes="false"
     inkscape:snap-global="true"
     inkscape:snap-others="false">
    <inkscape:grid
       type="xygrid"
       id="grid1378" />
    <sodipodi:guide
       position="0.97013831,21.607643"
       orientation="78.000048,0"
       id="guide1380"
       inkscape:locked="false" />
    <sodipodi:guide
       position="0.97013831,0.97013129"
       orientation="0,78.000005"
       id="guide1382"
       inkscape:locked="false" />
    <sodipodi:guide
       position="21.607639,0.97013129"
       orientation="-78.000048,0"
       id="guide1384"
       inkscape:locked="false" />
    <sodipodi:guide
       position="21.607639,21.607643"
       orientation="0,-78.000005"
       id="guide1386"
       inkscape:locked="false" />
  </sodipodi:namedview>
  <metadata
     id="metadata828">
    <rdf:RDF>
      <cc:Work
         rdf:about="">
        <dc:format>image/svg+xml</dc:format>
        <dc:type
           rdf:resource="http://purl.org/dc/dcmitype/StillImage" />
      </cc:Work>
    </rdf:RDF>
  </metadata>
  <g
     inkscape:label="Icon"
     inkscape:groupmode="layer"
     id="layer1"
     transform="translate(0,-274.42223)">
    <g
       id="g188271"
       style="display:inline;stroke-width:0.810299"
       transform="matrix(1.2341128,0,0,1.2341128,75.57541,159.70858)">
      <path
         style="color:#000000;fill:#e2f0fa;stroke-width:0.810299;stroke-linecap:round;stroke-linejoin:round;-inkscape-stroke:none"
         d="m -46.832031,98.212891 v -3.183594 h -2.611328 v 1.980469 z"
         id="path3152"
         sodipodi:nodetypes="ccccc" />
      <path
         id="path22632"
         style="color:#000000;fill:#c8dae5;fill-opacity:1;stroke-width:3.06255;stroke-linecap:round;stroke-linejoin:round;-inkscape-stroke:none"
         d="m -186.87305,363.29102 h 6.48661 a 1.3825294,1.3825294 45 0 1 1.38253,1.38253 v 6.52567 h 2 v -12.0332 h -9.86914"
         transform="scale(0.26458334)"
         sodipodi:nodetypes="cccccc" />
      <path
         style="color:#000000;fill:#e2f0fa;stroke-width:0.810299;stroke-linecap:round;stroke-linejoin:round;-inkscape-stroke:none"
         d="m -51.921875,95.806641 -6.917969,3.992187 a 0.26460996,0.26460996 0 0 0 -0.132812,0.230472 v 9.84961 a 0.26460996,0.26460996 0 0 0 0.263672,0.26562 h 13.234375 a 0.26460996,0.26460996 0 0 0 0.265625,-0.26562 v -9.84961 a 0.26460996,0.26460996 0 0 0 -0.123047,-0.224613 l -6.316406,-3.99414 a 0.26460996,0.26460996 0 0 0 -0.273438,-0.0039 z"
         id="path3524" />
      <path
         id="path29656"
         style="color:#000000;fill:#c8dae5;fill-opacity:1;stroke-width:3.06255;stroke-linecap:round;stroke-linejoin:round;-inkscape-stroke:none"
         d="m -170.86914,415.29102 v -37.22657 h -2 v 37.22657 z"
         transform="scale(0.26458334)"
         sodipodi:nodetypes="ccccc" />
      <path
         id="path27953"
         style="color:#000000;fill:#c8dae5;fill-opacity:1;stroke-width:3.06255;stroke-linecap:round;stroke-linejoin:round;-inkscape-stroke:none"
         d="m -170.86914,378.06445 c 0.002,-0.34434 -0.17396,-0.66532 -0.46484,-0.84961 l -23.87305,-15.0957 c -0.20706,-0.12958 -0.45438,-0.17891 -0.69531,-0.13867 -0.11914,0.0203 -0.23362,0.062 -0.33789,0.12305 l -26.14649,15.08984 c -0.31171,0.17905 -0.50334,0.51162 -0.50195,0.87109 l -1e-4,5.258 26.00596,-14.9502 26.01421,14.95215 z"
         transform="scale(0.26458334)"
         sodipodi:nodetypes="ccccccccccc" />
      <path
         style="color:#000000;fill:#dc1c4b;stroke-width:0.810299;stroke-linecap:round;stroke-linejoin:round;-inkscape-stroke:none"
         d="m -52.457031,94.882812 -7.392578,4.269532 c -0.297168,0.171568 -0.402036,0.558303 -0.230469,0.855466 l 0.300781,0.51953 c 0.17157,0.29716 0.558304,0.40009 0.855469,0.22852 l 6.832031,-3.94336 6.832031,3.94336 c 0.297152,0.17156 0.685857,0.0687 0.857422,-0.22852 l 0.298828,-0.51953 c 0.171568,-0.297166 0.06865,-0.683897 -0.228515,-0.855466 l -7.394531,-4.269532 c -0.22564,-0.130232 -0.50483,-0.130233 -0.730469,0 z"
         id="path3518" />
      <path
         style="color:#000000;fill:#143441;fill-opacity:1;stroke-width:0.810299;stroke-linecap:round;stroke-linejoin:round;-inkscape-stroke:none"
         d="m -55.53125,109.87891 v -1.85157 c 5.62e-4,-0.14693 -0.118693,-0.26618 -0.265625,-0.26562 h -3.705078 c -0.146932,-5.6e-4 -0.266187,0.11869 -0.265625,0.26562 v 1.85157 z"
         id="path12369"
         sodipodi:nodetypes="ccccccc" />
      <path
         style="color:#000000;fill:#70c2ef;stroke-width:0.810299;stroke-linecap:round;stroke-linejoin:round;-inkscape-stroke:none"
         d="m -57.714844,101.94141 a 0.26460996,0.26460996 0 0 0 -0.265625,0.26562 v 2.91016 a 0.26460996,0.26460996 0 0 0 0.265625,0.26367 h 2.777344 a 0.26460996,0.26460996 0 0 0 0.265625,-0.26367 v -2.91016 a 0.26460996,0.26460996 0 0 0 -0.265625,-0.26562 z"
         id="path5325" />
      <path
         id="path44175"
         style="color:#000000;fill:#5aabdd;fill-opacity:1;stroke-width:3.06255;stroke-linecap:round;stroke-linejoin:round;-inkscape-stroke:none"
         d="m -218.13477,385.29102 a 1.0001006,1.0001006 0 0 0 -1.0039,1.0039 v 2.9961 h 9.5 a 1.0001006,1.0001006 0 0 1 1.0039,1.0039 v 7.99414 h 0.9961 a 1.0001006,1.0001006 0 0 0 1.0039,-0.99609 v -10.99805 a 1.0001006,1.0001006 0 0 0 -1.0039,-1.0039 z"
         transform="scale(0.26458334)" />
      <path
         id="path5320"
         style="color:#000000;fill:#e2f0fa;stroke-width:3.06255;stroke-linecap:round;stroke-linejoin:round;-inkscape-stroke:none"
         d="m -213.88281,385.29102 v 5.49804 h -5.25586 v 2.00196 h 5.25586 v 5.49804 h 2 v -5.49804 h 5.24804 v -2.00196 h -5.24804 v -5.49804 z"
         transform="scale(0.26458334)" />
      <path
         style="color:#000000;fill:#3a4d5c;stroke-width:0.810299;stroke-linecap:round;stroke-linejoin:round;-inkscape-stroke:none"
         d="m -53.412109,101.94531 c -0.290945,0 -0.53125,0.24032 -0.53125,0.53125 v 6.34375 a 0.26460996,0.26460996 0 0 0 0.263672,0.26563 h 3.175781 a 0.26460996,0.26460996 0 0 0 0.265625,-0.26563 v -6.34375 c 0,-0.29093 -0.242259,-0.53125 -0.533203,-0.53125 z"
         id="path8923" />
      <path
         id="path33975"
         style="color:#000000;fill:#143441;fill-opacity:1;stroke-width:3.06255;stroke-linecap:round;stroke-linejoin:round;-inkscape-stroke:none"
         d="m -201.87305,385.30469 c -1.09699,0 -2.00346,0.90398 -2.00781,2 0.003,-10e-6 0.005,0 0.008,0 h 9.98047 c 1.09963,0 2.01563,0.90823 2.01563,2.00781 v 22.98047 h 0.99609 a 1.0001006,1.0001006 0 0 0 1.00391,-1.00391 V 387.3125 c 0,-1.09958 -0.916,-2.00781 -2.01563,-2.00781 z"
         transform="scale(0.26458334)" />
      <path
         style="color:#000000;fill:#a3b9c9;stroke-width:0.810299;stroke-linecap:round;stroke-linejoin:round;-inkscape-stroke:none"
         d="m -53.681641,108.55664 c -0.434132,0 -0.791015,0.35689 -0.791015,0.79102 v 0.53125 a 0.26460996,0.26460996 0 0 0 0.263672,0.26562 h 4.234375 a 0.26460996,0.26460996 0 0 0 0.265625,-0.26562 v -0.53125 c 0,-0.43413 -0.358836,-0.79102 -0.792969,-0.79102 z"
         id="path9119" />
      <path
         style="color:#000000;fill:#3a4d5c;fill-opacity:1;stroke-width:0.810299;stroke-linecap:round;stroke-linejoin:round;-inkscape-stroke:none"
         d="m -52.222656,97.480469 -1.820313,1.050781 a 0.2645835,0.2645835 0 0 0 -0.09766,0.361328 0.2645835,0.2645835 0 0 0 0.361328,0.09766 l 1.6875,-0.974609 1.6875,0.974609 a 0.2645835,0.2645835 0 0 0 0.361328,-0.09766 0.2645835,0.2645835 0 0 0 -0.0957,-0.361328 l -1.820312,-1.050781 a 0.26460996,0.26460996 0 0 0 -0.263671,0 z"
         id="path5331" />
      <path
         style="color:#000000;fill:#dc1c4b;stroke-width:0.810299;stroke-linecap:round;stroke-linejoin:round;-inkscape-stroke:none"
         d="m -49.179687,94.054687 c -0.289366,10e-7 -0.529297,0.239928 -0.529297,0.529297 V 95.0625 c 0,0.28937 0.239931,0.529297 0.529297,0.529297 h 2.117187 c 0.289366,0 0.529297,-0.239927 0.529297,-0.529297 v -0.478516 c 0,-0.289369 -0.239931,-0.529296 -0.529297,-0.529297 z"
         id="path3158" />
      <path
         style="color:#000000;fill:#e2f0fa;stroke-width:0.810299;stroke-linecap:round;stroke-linejoin:round;-inkscape-stroke:none"
         d="m -51.296875,105.9082 a 0.2645835,0.2645835 0 0 0 -0.265625,0.26563 v 0.26367 a 0.2645835,0.2645835 0 0 0 0.265625,0.26563 0.2645835,0.2645835 0 0 0 0.263672,-0.26563 v -0.26367 a 0.2645835,0.2645835 0 0 0 -0.263672,-0.26563 z"
         id="path5339" />
      <path
         style="color:#000000;fill:#70c2ef;stroke-width:0.810299;stroke-linecap:round;stroke-linejoin:round;-inkscape-stroke:none"
         d="m -49.25,101.94141 a 0.26460996,0.26460996 0 0 0 -0.265625,0.26562 v 2.91016 a 0.26460996,0.26460996 0 0 0 0.265625,0.26367 h 2.777344 a 0.26460996,0.26460996 0 0 0 0.265625,-0.26367 v -2.91016 a 0.26460996,0.26460996 0 0 0 -0.265625,-0.26562 z"
         id="path5645" />
      <path
         id="path37180"
         style="color:#000000;fill:#5aabdd;fill-opacity:1;stroke-width:3.06255;stroke-linecap:round;stroke-linejoin:round;-inkscape-stroke:none"
         d="m -186.14258,385.29102 a 1.0001006,1.0001006 0 0 0 -1.0039,1.0039 v 2.9961 h 9.50195 a 1.0001006,1.0001006 0 0 1 1.00391,1.0039 v 7.99414 h 0.99609 a 1.0001006,1.0001006 0 0 0 1.00391,-0.99609 v -10.99805 a 1.0001006,1.0001006 0 0 0 -1.00391,-1.0039 z"
         transform="scale(0.26458334)" />
      <path
         id="path5347"
         style="color:#000000;fill:#e2f0fa;stroke-width:3.06255;stroke-linecap:round;stroke-linejoin:round;-inkscape-stroke:none"
         d="m -181.89062,385.29102 v 5.49804 h -5.25586 v 2.00196 h 5.25586 v 5.49804 h 2.00195 v -5.49804 h 5.24805 v -2.00196 h -5.24805 v -5.49804 z"
         transform="scale(0.26458334)" />
      <path
         style="color:#000000;fill:#3a4d5c;fill-opacity:1;stroke-width:0.810299;stroke-linecap:round;stroke-linejoin:round;-inkscape-stroke:none"
         d="m -57.648437,100.88281 a 0.2645835,0.2645835 0 0 0 -0.265625,0.26563 0.2645835,0.2645835 0 0 0 0.265625,0.26367 h 2.644531 a 0.2645835,0.2645835 0 0 0 0.265625,-0.26367 0.2645835,0.2645835 0 0 0 -0.265625,-0.26563 z"
         id="path5351" />
      <path
         style="color:#000000;fill:#3a4d5c;fill-opacity:1;stroke-width:0.810299;stroke-linecap:round;stroke-linejoin:round;-inkscape-stroke:none"
         d="m -49.183594,100.88281 a 0.2645835,0.2645835 0 0 0 -0.265625,0.26563 0.2645835,0.2645835 0 0 0 0.265625,0.26367 h 2.644532 a 0.2645835,0.2645835 0 0 0 0.265625,-0.26367 0.2645835,0.2645835 0 0 0 -0.265625,-0.26563 z"
         id="path5353" />
      <path
         style="color:#000000;display:inline;fill:#9ccc65;fill-opacity:1;stroke-width:0.810299;stroke-linecap:round;stroke-linejoin:round;-inkscape-stroke:none"
         d="m -55.796867,108.8201 c 0.54647,0 0.91137,-0.41868 0.94723,-0.84801 0.0314,-0.37532 -0.16375,-0.78292 -0.55139,-0.97306 -0.07,-0.39038 -0.35616,-0.67656 -0.68316,-0.79014 v -5.3e-4 c -0.2892,-0.10044 -0.61684,-0.0902 -0.90227,0.0434 -0.17855,-0.1927 -0.4289,-0.294 -0.68162,-0.293 -0.24619,0.005 -0.48746,0.1074 -0.6599,0.29559 -0.28214,-0.13515 -0.6068,-0.14688 -0.89297,-0.0475 -0.32584,0.11309 -0.60783,0.40116 -0.67696,0.7922 -0.38769,0.19007 -0.58269,0.59769 -0.55139,0.97306 0.0358,0.42938 0.4007,0.84801 0.94723,0.84801 z"
         id="path13795" />
      <path
         style="color:#000000;fill:#143441;fill-opacity:1;stroke-width:0.810299;stroke-linecap:round;stroke-linejoin:round;-inkscape-stroke:none"
         d="m -44.416016,109.87891 v -1.85157 c 5.59e-4,-0.14617 -0.117503,-0.2651 -0.263671,-0.26562 h -3.707032 c -0.146169,5.2e-4 -0.264231,0.11945 -0.263672,0.26562 v 1.85157 z"
         id="path12375"
         sodipodi:nodetypes="ccccccc" />
      <path
         style="color:#000000;display:inline;fill:#9ccc65;fill-opacity:1;stroke-width:0.810299;stroke-linecap:round;stroke-linejoin:round;-inkscape-stroke:none"
         d="m -44.68052,108.8201 c 0.54647,0 0.91137,-0.41868 0.94723,-0.84801 0.0314,-0.37532 -0.16375,-0.78292 -0.55139,-0.97306 -0.07,-0.39038 -0.35616,-0.67656 -0.68316,-0.79014 v -5.3e-4 c -0.2892,-0.10044 -0.61684,-0.0902 -0.90227,0.0434 -0.17855,-0.1927 -0.4289,-0.294 -0.68162,-0.293 -0.24619,0.005 -0.48746,0.1074 -0.6599,0.29559 -0.28214,-0.13515 -0.6068,-0.14688 -0.89297,-0.0475 -0.32584,0.11309 -0.60783,0.40116 -0.67696,0.7922 -0.38769,0.19007 -0.58269,0.59769 -0.55139,0.97306 0.0358,0.42938 0.4007,0.84801 0.94723,0.84801 z"
         id="path127889" />
      <path
         id="path45352"
         style="color:#000000;fill:#c8dae5;fill-opacity:1;stroke-width:3.06255;stroke-linecap:round;stroke-linejoin:round;-inkscape-stroke:none"
         d="m -213.88281,385.29102 v 4 h 2 v -4 z m 5.24804,5.49804 v 2.00196 h 2 v -2.00196 z"
         transform="scale(0.26458334)" />
      <path
         style="color:#000000;fill:#3a4d5c;stroke-width:0.810299;stroke-linecap:round;stroke-linejoin:round;-inkscape-stroke:none"
         d="m -57.914062,101.94141 a 0.2645835,0.2645835 0 0 0 -0.265625,0.26562 0.2645835,0.2645835 0 0 0 0.265625,0.26367 h 3.175781 a 0.2645835,0.2645835 0 0 0 0.265625,-0.26367 0.2645835,0.2645835 0 0 0 -0.265625,-0.26562 z"
         id="path5318" />
      <path
         style="color:#000000;fill:#3a4d5c;stroke-width:0.810299;stroke-linecap:round;stroke-linejoin:round;-inkscape-stroke:none"
         d="m -57.914062,104.85156 a 0.2645835,0.2645835 0 0 0 -0.265625,0.26563 0.2645835,0.2645835 0 0 0 0.265625,0.26367 h 3.175781 a 0.2645835,0.2645835 0 0 0 0.265625,-0.26367 0.2645835,0.2645835 0 0 0 -0.265625,-0.26563 z"
         id="path5316" />
      <path
         style="color:#000000;fill:#3a4d5c;stroke-width:0.810299;stroke-linecap:round;stroke-linejoin:round;-inkscape-stroke:none"
         d="m -49.449219,104.85156 a 0.2645835,0.2645835 0 0 0 -0.265625,0.26563 0.2645835,0.2645835 0 0 0 0.265625,0.26367 h 3.175782 a 0.2645835,0.2645835 0 0 0 0.265625,-0.26367 0.2645835,0.2645835 0 0 0 -0.265625,-0.26563 z"
         id="path5343" />
      <path
         id="path41087"
         style="color:#000000;fill:#c8dae5;fill-opacity:1;stroke-width:0.810299;stroke-linecap:round;stroke-linejoin:round;-inkscape-stroke:none"
         d="m -48.125228,101.94158 v 1.05834 h 0.529683 v -1.05834 z m 1.389063,1.45469 v 0.52969 h 0.529167 v -0.52969 z" />
      <path
         style="color:#000000;fill:#3a4d5c;stroke-width:0.810299;stroke-linecap:round;stroke-linejoin:round;-inkscape-stroke:none"
         d="m -49.449219,101.94141 a 0.2645835,0.2645835 0 0 0 -0.265625,0.26562 0.2645835,0.2645835 0 0 0 0.265625,0.26367 h 3.175782 a 0.2645835,0.2645835 0 0 0 0.265625,-0.26367 0.2645835,0.2645835 0 0 0 -0.265625,-0.26562 z"
         id="path5345" />
      <path
         style="color:#000000;fill:#3a4d5c;stroke-width:0.810299;stroke-linecap:round;stroke-linejoin:round;-inkscape-stroke:none"
         d="m -52.091145,98.767578 c -0.727693,0 -1.324219,0.59652 -1.324219,1.324222 0,0.72769 0.596523,1.32226 1.324219,1.32226 0.727695,0 1.322265,-0.59457 1.322265,-1.32226 0,-0.727702 -0.594573,-1.324222 -1.322265,-1.324222 z"
         id="path3886" />
      <path
         id="path90978"
         style="color:#000000;fill:#143441;fill-opacity:1;stroke-width:0.810299;stroke-linecap:round;stroke-linejoin:round;-inkscape-stroke:none"
         d="m -52.091395,98.767617 c -0.499055,0 -0.936117,0.280408 -1.161685,0.69143 0.188304,-0.103341 0.403881,-0.162264 0.632518,-0.162264 0.727692,0 1.322401,0.596247 1.322401,1.323947 0,0.22839 -0.05837,0.44411 -0.161232,0.63201 0.410784,-0.22489 0.690399,-0.66187 0.690399,-1.16117 0,-0.727704 -0.59471,-1.323953 -1.322401,-1.323953 z" />
      <path
         style="color:#000000;fill:#70c2ef;fill-opacity:1;stroke-width:0.810299;stroke-linecap:round;stroke-linejoin:round;-inkscape-stroke:none"
         d="m -52.091797,99.296875 c 0.441713,0 0.794922,0.353202 0.794922,0.794925 0,0.4417 -0.353212,0.79492 -0.794922,0.79492 -0.441711,0 -0.792969,-0.35322 -0.792969,-0.79492 0,-0.441723 0.351255,-0.794925 0.792969,-0.794925 z"
         id="path4084" />
      <path
         id="path12841"
         style="color:#000000;fill:#b01d47;fill-opacity:1;stroke-width:0.810299;stroke-linecap:round;stroke-linejoin:round;-inkscape-stroke:none"
         d="m -49.179945,94.054726 c -0.289366,3e-6 -0.529166,0.239797 -0.529166,0.529167 h 2.117698 c 0.289367,2e-6 0.529167,0.239797 0.529167,0.529166 v 0.478526 c 0.289367,0 0.529167,-0.239797 0.529167,-0.529167 v -0.478525 c 0,-0.28937 -0.2398,-0.529164 -0.529167,-0.529167 z" />
      <path
         id="path23575"
         style="color:#000000;fill:#b01d47;fill-opacity:1;stroke-width:3.06255;stroke-linecap:round;stroke-linejoin:round;-inkscape-stroke:none"
         d="m -197.88281,358.43164 c 9.43674,5.35839 18.90073,10.87304 28.32812,16.31641 1.12315,0.64845 1.51173,2.11122 0.86328,3.23437 l -1.1289,1.96289 c -0.25182,0.43626 -0.62756,0.76008 -1.0586,0.95703 1.09533,0.51125 2.4444,0.10701 3.0586,-0.95703 l 1.1289,-1.96289 c 0.64845,-1.12315 0.25987,-2.58592 -0.86328,-3.23437 l -27.94726,-16.13672 c -0.8429,-0.45637 -1.65371,-0.48277 -2.38086,-0.17969 z"
         transform="scale(0.26458334)"
         sodipodi:nodetypes="cccccccccc" />
      <path
         id="path54948"
         style="color:#000000;display:inline;fill:#74a838;fill-opacity:1;stroke-width:3.06255;stroke-linecap:round;stroke-linejoin:round;-inkscape-stroke:none"
         d="m -178.4375,401.5918 c -1.06636,-0.51081 -2.29341,-0.55545 -3.375,-0.17969 -1.23152,0.42743 -2.29732,1.51619 -2.55859,2.99414 -1.46529,0.71837 -2.20229,2.25901 -2.08399,3.67773 0.0193,0.22904 0.0639,0.45674 0.13086,0.67969 0.2747,-0.97107 0.93975,-1.8606 1.95313,-2.35742 0.26127,-1.47795 1.32707,-2.56671 2.55859,-2.99414 1.08159,-0.37569 2.30864,-0.33093 3.375,0.17969 0.65174,-0.71127 1.56366,-1.09829 2.49414,-1.11719 0.95516,-0.004 1.90134,0.37914 2.57617,1.10742 3.09828,-1.15893 6.2505,1.62519 6.07617,4.50195 -0.13553,1.62267 -1.51468,3.20508 -3.58007,3.20508 h 2 c 4.08814,0 4.79748,-5.24819 1.49668,-6.88304 -0.52576,-2.93537 -3.6431,-3.9019 -5.99203,-2.8247 -0.67483,-0.72831 -1.62101,-1.1112 -2.57654,-1.10707 -0.93086,0.0193 -1.84278,0.40628 -2.49452,1.11755 z"
         transform="scale(0.26458334)"
         sodipodi:nodetypes="ccccccccccccccccc" />
      <path
         id="path54948-5"
         style="color:#000000;display:inline;fill:#74a838;fill-opacity:1;stroke-width:0.810299;stroke-linecap:round;stroke-linejoin:round;-inkscape-stroke:none"
         d="m -59.219388,106.20691 c -0.325839,0.11309 -0.607832,0.40116 -0.67696,0.7922 -0.387691,0.19007 -0.582689,0.5977 -0.551389,0.97307 0.0051,0.0606 0.01691,0.12084 0.03462,0.17983 0.07268,-0.25693 0.248642,-0.49228 0.516765,-0.62373 0.06913,-0.39104 0.351121,-0.67911 0.67696,-0.7922 0.286171,-0.0994 0.610828,-0.0876 0.892969,0.0475 0.17244,-0.18819 0.413719,-0.29059 0.659908,-0.29559 0.25272,-10e-4 0.503063,0.10032 0.681612,0.29301 0.819753,-0.30664 1.653778,0.42999 1.607653,1.19114 -0.03586,0.42933 -0.400759,0.84801 -0.947227,0.84801 h 0.529167 c 1.081654,0 1.269333,-1.38859 0.395997,-1.82114 -0.139108,-0.77665 -0.963904,-1.03238 -1.585392,-0.74737 -0.178549,-0.1927 -0.428892,-0.294 -0.681709,-0.29291 -0.24629,0.005 -0.487569,0.10749 -0.660007,0.29568 -0.282139,-0.13515 -0.606796,-0.14696 -0.892967,-0.0475 z"
         sodipodi:nodetypes="ccccccccccccccccc" />
      <path
         id="path76264"
         style="color:#000000;fill:#7d8e9e;fill-opacity:1;stroke-width:3.06255;stroke-linecap:round;stroke-linejoin:round;-inkscape-stroke:none"
         d="m -202.89062,410.29297 c -1.3417,0 -2.48987,0.90102 -2.86329,2.12695 0.27332,-0.0832 0.56416,-0.12695 0.86329,-0.12695 h 12.01757 c 1.64082,0 2.9961,1.34943 2.9961,2.99023 v 1.01172 h 0.99609 a 1.0001006,1.0001006 0 0 0 1.00391,-1.0039 v -2.00782 c 0,-1.6408 -1.35528,-2.99023 -2.9961,-2.99023 z"
         transform="scale(0.26458334)" />
      <path
         style="color:#000000;fill:#a3b9c9;stroke-width:0.810299;stroke-linecap:round;stroke-linejoin:round;-inkscape-stroke:none"
         d="m -60.03125,109.61523 a 0.2645835,0.2645835 0 0 0 -0.265625,0.26368 0.2645835,0.2645835 0 0 0 0.265625,0.26562 h 15.880859 a 0.2645835,0.2645835 0 0 0 0.263672,-0.26562 0.2645835,0.2645835 0 0 0 -0.263672,-0.26368 z"
         id="path12735" />
      <path
         id="path93520"
         style="color:#000000;fill:#5aabdd;fill-opacity:1;stroke-width:0.810299;stroke-linecap:round;stroke-linejoin:round;-inkscape-stroke:none"
         d="m -52.091911,99.296783 c -0.08096,0 -0.158755,0.01201 -0.232029,0.03411 0.491432,0.113932 0.879663,0.504193 0.992187,0.996317 0.0227,-0.0743 0.03462,-0.15356 0.03462,-0.23564 0,-0.441725 -0.353071,-0.794785 -0.794782,-0.794785 z" />
    </g>
  </g>
</svg>
